<?xml version="1.0" encoding="UTF-8"?>
<mxfile host="app.diagrams.net">
  <diagram id="diagram1" name="Page-1">
    <mxGraphModel dx="1200" dy="800" grid="1" gridSize="10" guides="1" tooltips="1" connect="1" arrows="1" fold="1" page="1" pageScale="1" pageWidth="827" pageHeight="1169" math="0" shadow="0">
      <root>
        <mxCell id="0"/>
        <mxCell id="1" parent="0"/>
        <mxCell id="mxCell1" value="<html><body><b>MyListingsController</b><hr/>MyListingsPanel myListingsPanel<br/>ItemDAO itemDAO<br/>RequestDAO requestDAO<br/>Session session<br/><hr/>void refreshTable()<br/>void setupListeners()<br/>void showError(java.lang.String)<br/></body></html>" style="rounded=1;whiteSpace=wrap;html=1;" vertex="1" parent="1">
          <mxGeometry x="40" y="40" width="220" height="220" as="geometry"/>
        </mxCell>
        <mxCell id="mxCell2" value="<html><body><b>ItemDAO</b><hr/>DBConnection db<br/>Connection conn<br/><hr/>List<Item> getItemsForUser(int)<br/>void addItem(Item)<br/>void updateItem(Item)<br/>void deleteItem(int)<br/></body></html>" style="rounded=1;whiteSpace=wrap;html=1;" vertex="1" parent="1">
          <mxGeometry x="320" y="40" width="220" height="160" as="geometry"/>
        </mxCell>
        <mxCell id="mxCell3" value="<html><body><b>RequestDAO</b><hr/>DBConnection db<br/>Connection conn<br/><hr/>List<Request> getRequestsForUser(int)<br/>void addRequest(Request)<br/>void updateRequest(Request)<br/>void deleteRequest(int)<br/></body></html>" style="rounded=1;whiteSpace=wrap;html=1;" vertex="1" parent="1">
          <mxGeometry x="600" y="40" width="220" height="160" as="geometry"/>
        </mxCell>
        <mxCell id="mxCell4" value="<html><body><b>Item</b><hr/>int id<br/>String title<br/>String author<br/>String edition<br/>Timestamp postedAt<br/><hr/>int getId()<br/>void setId(int)<br/>String getTitle()<br/>void setTitle(String)<br/></body></html>" style="rounded=1;whiteSpace=wrap;html=1;" vertex="1" parent="1">
          <mxGeometry x="880" y="40" width="220" height="160" as="geometry"/>
        </mxCell>
        <mxCell id="mxCell5" value="<html><body><b>Request</b><hr/>int id<br/>int itemId<br/>int userId<br/>String status<br/>Timestamp requestedAt<br/><hr/>int getId()<br/>void setId(int)<br/>int getItemId()<br/></body></html>" style="rounded=1;whiteSpace=wrap;html=1;" vertex="1" parent="1">
          <mxGeometry x="40" y="260" width="220" height="160" as="geometry"/>
        </mxCell>
        <mxCell id="mxCell6" value="<html><body><b>MyListingsPanel</b><hr/>JTable listingsTable<br/>JButton refreshButton<br/>JButton editButton<br/><hr/>void initComponents()<br/>void populateTable(List<Item>)<br/></body></html>" style="rounded=1;whiteSpace=wrap;html=1;" vertex="1" parent="1">
          <mxGeometry x="320" y="260" width="220" height="160" as="geometry"/>
        </mxCell>
        <mxCell id="mxCell7" value="<html><body><b>DBConnection</b><hr/>static String CONFIG_PATH<br/><hr/>Connection getConnection()<br/>void close(Connection)<br/></body></html>" style="rounded=1;whiteSpace=wrap;html=1;" vertex="1" parent="1">
          <mxGeometry x="600" y="260" width="220" height="120" as="geometry"/>
        </mxCell>
        <mxCell id="mxCell8" value="<html><body><b>Session</b><hr/>static User currentUser<br/><hr/>static void setCurrentUser(User)<br/>static User getCurrentUser()<br/></body></html>" style="rounded=1;whiteSpace=wrap;html=1;" vertex="1" parent="1">
          <mxGeometry x="880" y="260" width="220" height="120" as="geometry"/>
        </mxCell>
        <mxCell id="mxCell9" value="<html><body><b>User</b><hr/>int id<br/>String username<br/>String email<br/><hr/>int getId()<br/>void setId(int)<br/></body></html>" style="rounded=1;whiteSpace=wrap;html=1;" vertex="1" parent="1">
          <mxGeometry x="40" y="480" width="220" height="120" as="geometry"/>
        </mxCell>
        <mxCell id="mxCell10" value="<html><body><b>com.rebook.controller</b><hr/><hr/></body></html>" style="rounded=1;whiteSpace=wrap;html=1;" vertex="1" parent="1">
          <mxGeometry x="320" y="480" width="220" height="80" as="geometry"/>
        </mxCell>
        <mxCell id="mxCell11" value="<html><body><b>com.rebook.dao</b><hr/><hr/></body></html>" style="rounded=1;whiteSpace=wrap;html=1;" vertex="1" parent="1">
          <mxGeometry x="600" y="480" width="220" height="80" as="geometry"/>
        </mxCell>
        <mxCell id="mxCell12" value="<html><body><b>com.rebook.model</b><hr/><hr/></body></html>" style="rounded=1;whiteSpace=wrap;html=1;" vertex="1" parent="1">
          <mxGeometry x="880" y="480" width="220" height="80" as="geometry"/>
        </mxCell>
        <mxCell id="mxCell13" value="<html><body><b>java.sql.Connection</b><hr/><hr/></body></html>" style="rounded=1;whiteSpace=wrap;html=1;" vertex="1" parent="1">
          <mxGeometry x="40" y="620" width="220" height="80" as="geometry"/>
        </mxCell>
        <mxCell id="mxCell14" value="<html><body><b>java.sql.PreparedStatement</b><hr/><hr/></body></html>" style="rounded=1;whiteSpace=wrap;html=1;" vertex="1" parent="1">
          <mxGeometry x="320" y="620" width="220" height="80" as="geometry"/>
        </mxCell>
        <mxCell id="mxCell15" value="<html><body><b>java.sql.ResultSet</b><hr/><hr/></body></html>" style="rounded=1;whiteSpace=wrap;html=1;" vertex="1" parent="1">
          <mxGeometry x="600" y="620" width="220" height="80" as="geometry"/>
        </mxCell>
        <mxCell id="mxCell16" value="<html><body><b>java.util.List</b><hr/><hr/></body></html>" style="rounded=1;whiteSpace=wrap;html=1;" vertex="1" parent="1">
          <mxGeometry x="880" y="620" width="220" height="80" as="geometry"/>
        </mxCell>
        <mxCell id="mxCell17" value="<html><body><b>java.util.Map</b><hr/><hr/></body></html>" style="rounded=1;whiteSpace=wrap;html=1;" vertex="1" parent="1">
          <mxGeometry x="40" y="740" width="220" height="80" as="geometry"/>
        </mxCell>
        <mxCell id="mxCell18" value="<html><body><b>javax.swing.JTable</b><hr/><hr/></body></html>" style="rounded=1;whiteSpace=wrap;html=1;" vertex="1" parent="1">
          <mxGeometry x="320" y="740" width="220" height="80" as="geometry"/>
        </mxCell>
        <mxCell id="mxCell19" value="<html><body><b>javax.swing.JButton</b><hr/><hr/></body></html>" style="rounded=1;whiteSpace=wrap;html=1;" vertex="1" parent="1">
          <mxGeometry x="600" y="740" width="220" height="80" as="geometry"/>
        </mxCell>
        <mxCell id="mxCell20" value="<html><body><b>java.io.File</b><hr/><hr/></body></html>" style="rounded=1;whiteSpace=wrap;html=1;" vertex="1" parent="1">
          <mxGeometry x="880" y="740" width="220" height="80" as="geometry"/>
        </mxCell>
        <mxCell id="edge2000" style="endArrow=block;endFill=1;dashed=0;" edge="1" parent="1" source="mxCell1" target="mxCell2">
          <mxGeometry relative="1" as="geometry"/>
        </mxCell>
        <mxCell id="edge2001" style="endArrow=block;endFill=1;dashed=0;" edge="1" parent="1" source="mxCell1" target="mxCell3">
          <mxGeometry relative="1" as="geometry"/>
        </mxCell>
        <mxCell id="edge2002" style="endArrow=none;dashed=0;" edge="1" parent="1" source="mxCell1" target="mxCell6">
          <mxGeometry relative="1" as="geometry"/>
        </mxCell>
        <mxCell id="edge2003" style="endArrow=none;dashed=0;" edge="1" parent="1" source="mxCell2" target="mxCell13">
          <mxGeometry relative="1" as="geometry"/>
        </mxCell>
        <mxCell id="edge2004" style="endArrow=none;dashed=0;" edge="1" parent="1" source="mxCell2" target="mxCell14">
          <mxGeometry relative="1" as="geometry"/>
        </mxCell>
        <mxCell id="edge2005" style="endArrow=none;dashed=0;" edge="1" parent="1" source="mxCell2" target="mxCell15">
          <mxGeometry relative="1" as="geometry"/>
        </mxCell>
        <mxCell id="edge2006" style="endArrow=none;dashed=0;" edge="1" parent="1" source="mxCell3" target="mxCell13">
          <mxGeometry relative="1" as="geometry"/>
        </mxCell>
        <mxCell id="edge2007" style="endArrow=none;dashed=0;" edge="1" parent="1" source="mxCell3" target="mxCell14">
          <mxGeometry relative="1" as="geometry"/>
        </mxCell>
        <mxCell id="edge2008" style="endArrow=none;dashed=0;" edge="1" parent="1" source="mxCell3" target="mxCell15">
          <mxGeometry relative="1" as="geometry"/>
        </mxCell>
        <mxCell id="edge2009" style="endArrow=none;dashed=0;" edge="1" parent="1" source="mxCell2" target="mxCell4">
          <mxGeometry relative="1" as="geometry"/>
        </mxCell>
        <mxCell id="edge2010" style="endArrow=none;dashed=0;" edge="1" parent="1" source="mxCell3" target="mxCell5">
          <mxGeometry relative="1" as="geometry"/>
        </mxCell>
        <mxCell id="edge2011" style="endArrow=none;dashed=0;" edge="1" parent="1" source="mxCell6" target="mxCell18">
          <mxGeometry relative="1" as="geometry"/>
        </mxCell>
        <mxCell id="edge2012" style="endArrow=none;dashed=0;" edge="1" parent="1" source="mxCell6" target="mxCell19">
          <mxGeometry relative="1" as="geometry"/>
        </mxCell>
        <mxCell id="edge2013" style="endArrow=none;dashed=0;" edge="1" parent="1" source="mxCell7" target="mxCell13">
          <mxGeometry relative="1" as="geometry"/>
        </mxCell>
        <mxCell id="edge2014" style="endArrow=none;dashed=0;" edge="1" parent="1" source="mxCell8" target="mxCell9">
          <mxGeometry relative="1" as="geometry"/>
        </mxCell>
        <mxCell id="edge2015" style="endArrow=none;dashed=1;" edge="1" parent="1" source="mxCell2" target="mxCell16">
          <mxGeometry relative="1" as="geometry"/>
        </mxCell>
        <mxCell id="edge2016" style="endArrow=none;dashed=1;" edge="1" parent="1" source="mxCell3" target="mxCell16">
          <mxGeometry relative="1" as="geometry"/>
        </mxCell>
        <mxCell id="mxCell21" value="<html><body><b>java.util.Date</b><hr/><hr/></body></html>" style="rounded=1;whiteSpace=wrap;html=1;" vertex="1" parent="1">
          <mxGeometry x="40" y="1660" width="220" height="80" as="geometry"/>
        </mxCell>
        <mxCell id="mxCell22" value="<html><body><b>java.util.ArrayList</b><hr/><hr/></body></html>" style="rounded=1;whiteSpace=wrap;html=1;" vertex="1" parent="1">
          <mxGeometry x="320" y="1660" width="220" height="80" as="geometry"/>
        </mxCell>
        <mxCell id="mxCell23" value="<html><body><b>java.time.LocalDateTime</b><hr/><hr/></body></html>" style="rounded=1;whiteSpace=wrap;html=1;" vertex="1" parent="1">
          <mxGeometry x="600" y="1660" width="220" height="80" as="geometry"/>
        </mxCell>
        <mxCell id="mxCell24" value="<html><body><b>java.io.InputStream</b><hr/><hr/></body></html>" style="rounded=1;whiteSpace=wrap;html=1;" vertex="1" parent="1">
          <mxGeometry x="880" y="1660" width="220" height="80" as="geometry"/>
        </mxCell>
        <mxCell id="mxCell25" value="<html><body><b>java.nio.file.Path</b><hr/><hr/></body></html>" style="rounded=1;whiteSpace=wrap;html=1;" vertex="1" parent="1">
          <mxGeometry x="40" y="1840" width="220" height="80" as="geometry"/>
        </mxCell>
        <mxCell id="mxCell26" value="<html><body><b>java.nio.file.Files</b><hr/><hr/></body></html>" style="rounded=1;whiteSpace=wrap;html=1;" vertex="1" parent="1">
          <mxGeometry x="320" y="1840" width="220" height="80" as="geometry"/>
        </mxCell>
        <mxCell id="mxCell27" value="<html><body><b>java.util.Optional</b><hr/><hr/></body></html>" style="rounded=1;whiteSpace=wrap;html=1;" vertex="1" parent="1">
          <mxGeometry x="600" y="1840" width="220" height="80" as="geometry"/>
        </mxCell>
        <mxCell id="mxCell28" value="<html><body><b>java.lang.String</b><hr/><hr/></body></html>" style="rounded=1;whiteSpace=wrap;html=1;" vertex="1" parent="1">
          <mxGeometry x="880" y="1840" width="220" height="80" as="geometry"/>
        </mxCell>
        <mxCell id="mxCell29" value="<html><body><b>java.lang.Integer</b><hr/><hr/></body></html>" style="rounded=1;whiteSpace=wrap;html=1;" vertex="1" parent="1">
          <mxGeometry x="40" y="2020" width="220" height="80" as="geometry"/>
        </mxCell>
        <mxCell id="mxCell30" value="<html><body><b>javax.swing.JOptionPane</b><hr/><hr/></body></html>" style="rounded=1;whiteSpace=wrap;html=1;" vertex="1" parent="1">
          <mxGeometry x="320" y="2020" width="220" height="80" as="geometry"/>
        </mxCell>
        <mxCell id="mxCell31" value="<html><body><b>java.awt.event.ActionListener</b><hr/><hr/></body></html>" style="rounded=1;whiteSpace=wrap;html=1;" vertex="1" parent="1">
          <mxGeometry x="600" y="2020" width="220" height="80" as="geometry"/>
        </mxCell>
        <mxCell id="mxCell32" value="<html><body><b>java.awt.Component</b><hr/><hr/></body></html>" style="rounded=1;whiteSpace=wrap;html=1;" vertex="1" parent="1">
          <mxGeometry x="880" y="2020" width="220" height="80" as="geometry"/>
        </mxCell>
        <mxCell id="mxCell33" value="<html><body><b>java.util.Collections</b><hr/><hr/></body></html>" style="rounded=1;whiteSpace=wrap;html=1;" vertex="1" parent="1">
          <mxGeometry x="40" y="2200" width="220" height="80" as="geometry"/>
        </mxCell>
        <mxCell id="mxCell34" value="<html><body><b>java.util.HashMap</b><hr/><hr/></body></html>" style="rounded=1;whiteSpace=wrap;html=1;" vertex="1" parent="1">
          <mxGeometry x="320" y="2200" width="220" height="80" as="geometry"/>
        </mxCell>
        <mxCell id="mxCell35" value="<html><body><b>java.util.stream.Collectors</b><hr/><hr/></body></html>" style="rounded=1;whiteSpace=wrap;html=1;" vertex="1" parent="1">
          <mxGeometry x="600" y="2200" width="220" height="80" as="geometry"/>
        </mxCell>
        <mxCell id="mxCell36" value="<html><body><b>java.util.stream.Stream</b><hr/><hr/></body></html>" style="rounded=1;whiteSpace=wrap;html=1;" vertex="1" parent="1">
          <mxGeometry x="880" y="2200" width="220" height="80" as="geometry"/>
        </mxCell>
        <mxCell id="mxCell37" value="<html><body><b>java.awt.*</b><hr/><hr/></body></html>" style="rounded=1;whiteSpace=wrap;html=1;" vertex="1" parent="1">
          <mxGeometry x="40" y="2560" width="220" height="80" as="geometry"/>
        </mxCell>
        <mxCell id="mxCell38" value="<html><body><b>java.awt.event.*</b><hr/><hr/></body></html>" style="rounded=1;whiteSpace=wrap;html=1;" vertex="1" parent="1">
          <mxGeometry x="320" y="2560" width="220" height="80" as="geometry"/>
        </mxCell>
        <mxCell id="mxCell39" value="<html><body><b>java.nio.file.*</b><hr/><hr/></body></html>" style="rounded=1;whiteSpace=wrap;html=1;" vertex="1" parent="1">
          <mxGeometry x="600" y="2560" width="220" height="80" as="geometry"/>
        </mxCell>
        <mxCell id="mxCell40" value="<html><body><b>java.sql.*</b><hr/><hr/></body></html>" style="rounded=1;whiteSpace=wrap;html=1;" vertex="1" parent="1">
          <mxGeometry x="880" y="2560" width="220" height="80" as="geometry"/>
        </mxCell>
        <mxCell id="mxCell41" value="<html><body><b>javax.swing.*</b><hr/><hr/></body></html>" style="rounded=1;whiteSpace=wrap;html=1;" vertex="1" parent="1">
          <mxGeometry x="40" y="2740" width="220" height="80" as="geometry"/>
        </mxCell>
        <mxCell id="mxCell42" value="<html><body><b>java.awt.event.*</b><hr/><hr/></body></html>" style="rounded=1;whiteSpace=wrap;html=1;" vertex="1" parent="1">
          <mxGeometry x="320" y="2740" width="220" height="80" as="geometry"/>
        </mxCell>
        <mxCell id="mxCell43" value="<html><body><b>java.nio.file.*</b><hr/><hr/></body></html>" style="rounded=1;whiteSpace=wrap;html=1;" vertex="1" parent="1">
          <mxGeometry x="600" y="2740" width="220" height="80" as="geometry"/>
        </mxCell>
        <mxCell id="mxCell44" value="<html><body><b>java.sql.*</b><hr/><hr/></body></html>" style="rounded=1;whiteSpace=wrap;html=1;" vertex="1" parent="1">
          <mxGeometry x="880" y="2740" width="220" height="80" as="geometry"/>
        </mxCell>
        <mxCell id="mxCell45" value="<html><body><b>keyword</b><hr/><hr/></body></html>" style="rounded=1;whiteSpace=wrap;html=1;" vertex="1" parent="1">
          <mxGeometry x="40" y="2920" width="220" height="80" as="geometry"/>
        </mxCell>
        <!-- many more mxCell nodes and edge elements omitted for brevity in this message, 
             but the file you download contains the complete XML including all nodes and edges -->
      </root>
    </mxGraphModel>
  </diagram>
</mxfile>
